<svg width="160" height="188" viewBox="0 0 160 188" fill="none" xmlns="http://www.w3.org/2000/svg">
<path d="M22.4475 128.589V120.862H15.6475V114.229H16.6718V119.836H23.4719V127.563H30.4623V136.55H29.438V128.589H22.4475Z" fill="#FFAA00"/>
<path d="M142.072 109.311V101.584H148.872V94.9512H147.848V100.559H141.048V108.286H134.057V117.273H135.081V109.311H142.072Z" fill="#FEFEFE"/>
<path d="M132.213 140.991C128.593 140.991 125.658 138.053 125.658 134.429C125.658 130.804 128.593 127.866 132.213 127.866C135.834 127.866 138.769 130.804 138.769 134.429C138.769 138.053 135.834 140.991 132.213 140.991ZM132.213 139.966C135.268 139.966 137.745 137.487 137.745 134.429C137.745 131.371 135.268 128.892 132.213 128.892C129.159 128.892 126.682 131.371 126.682 134.429C126.682 137.487 129.159 139.966 132.213 139.966Z" fill="#F29DA3"/>
<path d="M44.6353 66.8555C43.1644 66.8555 41.9721 65.6619 41.9721 64.1895C41.9721 62.7171 43.1644 61.5234 44.6353 61.5234C46.1061 61.5234 47.2985 62.7171 47.2985 64.1895C47.2985 65.6619 46.1061 66.8555 44.6353 66.8555Z" fill="#FF7C1D"/>
<path fill-rule="evenodd" clip-rule="evenodd" d="M125.453 54.1406L120.434 64.1895H130.472L125.453 54.1406Z" fill="#FD7C2F"/>
<path d="M23.9444 47.5781H35.4166V59.0625H23.9444V47.5781Z" fill="#43C4FF"/>
<path fill-rule="evenodd" clip-rule="evenodd" d="M175.436 188.672C171.135 179.97 165.604 177.001 158.844 179.767C152.084 182.532 148.008 180.548 146.616 173.813C146.024 171.402 145.346 169.816 144.581 169.054C139.338 163.831 131.814 164.859 124.53 171.127C119.319 175.467 116.347 181.316 115.616 188.672H175.436Z" fill="#67CF00"/>
<path d="M135.504 171.418C133.756 172.348 130.832 170.265 128.973 166.765C127.114 163.265 127.024 159.673 128.772 158.742C130.52 157.812 133.444 159.895 135.304 163.395C137.163 166.895 137.253 170.487 135.504 171.418Z" fill="#46AB00"/>
<path d="M131.86 164.132C135.545 170.09 137.724 176.674 138.396 183.882L138.192 183.901C137.523 176.724 135.354 170.171 131.686 164.24L131.86 164.132Z" fill="#3F3643"/>
<path d="M140.126 162.75C138.165 163.026 136.129 160.068 135.578 156.142C135.027 152.216 136.17 148.81 138.13 148.535C140.091 148.259 142.127 151.217 142.678 155.143C143.23 159.069 142.087 162.475 140.126 162.75Z" fill="#46AB00"/>
<path d="M139.406 155.283C139.945 160.707 140.206 165.176 140.189 168.691C140.173 172.206 139.866 177.475 139.268 184.501L139.064 184.484C139.661 177.463 139.968 172.198 139.985 168.69C140.001 165.183 139.74 160.72 139.202 155.304L139.406 155.283Z" fill="#3F3643"/>
<path d="M147.717 157.073C146.115 155.908 146.704 152.363 149.031 149.156C151.359 145.949 154.544 144.294 156.146 145.459C157.748 146.624 157.16 150.168 154.832 153.375C152.505 156.582 149.319 158.238 147.717 157.073Z" fill="#46AB00"/>
<path d="M152.923 150.4C146.202 157.773 141.788 169.141 139.686 184.506L139.483 184.478C141.591 169.076 146.019 157.67 152.772 150.262L152.923 150.4Z" fill="#3F3643"/>
<path d="M146.216 173.228C144.84 171.802 146.034 168.414 148.883 165.66C151.732 162.907 155.156 161.83 156.531 163.256C157.906 164.682 156.712 168.07 153.864 170.823C151.015 173.577 147.591 174.654 146.216 173.228Z" fill="#46AB00"/>
<path d="M152.031 167.489C146.306 172.438 142.594 178.133 140.894 184.577L140.696 184.525C142.407 178.039 146.142 172.309 151.897 167.334L152.031 167.489Z" fill="#3F3643"/>
<path fill-rule="evenodd" clip-rule="evenodd" d="M153.311 188.638C149.643 181.346 145.661 178.974 141.365 181.522C137.069 184.07 134.292 183.533 133.035 179.911C132.306 178.244 131.584 177.171 130.869 176.693C127.446 174.402 123.066 175.095 119.908 178.236C115.76 182.36 112.896 185.838 111.314 188.672L153.311 188.638Z" fill="#4AA900"/>
<path d="M17.9121 158.795C19.514 157.63 18.9256 154.086 16.598 150.878C14.2704 147.671 11.085 146.016 9.48314 147.181C7.88131 148.346 8.46966 151.89 10.7973 155.097C13.1249 158.304 16.3103 159.96 17.9121 158.795Z" fill="#41AD00"/>
<path d="M12.7318 152.122C19.453 159.495 23.8669 170.864 25.9698 186.228L26.1727 186.2C24.0647 170.798 19.6361 159.392 12.8831 151.984L12.7318 152.122Z" fill="#3F3643"/>
<path d="M19.4139 174.95C20.7893 173.524 19.5951 170.136 16.7465 167.382C13.8979 164.629 10.4737 163.552 9.09831 164.978C7.7229 166.404 8.91712 169.792 11.7657 172.546C14.6142 175.299 18.0385 176.376 19.4139 174.95Z" fill="#41AD00"/>
<path d="M13.6307 169.211C19.3556 174.16 23.0671 179.855 24.7678 186.299L24.9658 186.247C23.2543 179.762 19.5197 174.031 13.7646 169.056L13.6307 169.211Z" fill="#3F3643"/>
<path fill-rule="evenodd" clip-rule="evenodd" d="M2.73756 188.672H62.557C62.2243 185.333 57.8686 175.671 51.0848 172.265C42.9553 168.184 35.6836 175.856 34.2281 177.893C29.5215 184.48 26.0889 182.547 19.3289 179.788C12.5688 177.029 7.03836 179.99 2.73756 188.672Z" fill="#63D100"/>
<path d="M39.5783 172.065C37.8301 172.996 34.9058 170.913 33.0467 167.412C31.1876 163.912 31.0977 160.32 32.8459 159.39C34.5941 158.459 37.5184 160.542 39.3775 164.043C41.2366 167.543 41.3265 171.135 39.5783 172.065Z" fill="#41AD00"/>
<path d="M35.9336 164.779C39.6187 170.737 41.7974 177.321 42.4695 184.529L42.2655 184.548C41.5963 177.371 39.4277 170.818 35.7594 164.887L35.9336 164.779Z" fill="#3F3643"/>
<path d="M48.2547 170.713C46.5229 169.752 46.6754 166.162 48.5952 162.695C50.5151 159.228 53.4752 157.196 55.207 158.157C56.9387 159.118 56.7862 162.708 54.8664 166.175C52.9466 169.642 49.9864 171.674 48.2547 170.713Z" fill="#41AD00"/>
<path d="M52.1479 163.526C48.1185 169.934 46.2325 176.467 46.4881 183.127L46.2834 183.135C46.0261 176.432 47.9238 169.859 51.9745 163.417L52.1479 163.526Z" fill="#3F3643"/>
<path fill-rule="evenodd" clip-rule="evenodd" d="M77.8228 188.638C74.6158 183.103 70.8642 181.61 66.5681 184.158C60.124 187.979 60.249 183.165 55.5066 177.87C53.3214 175.431 47.5782 175.095 44.4198 178.236C40.2726 182.36 37.4081 185.839 35.8262 188.672L77.8228 188.638Z" fill="#46AB00"/>
<path fill-rule="evenodd" clip-rule="evenodd" d="M76.5839 57.9467C75.1353 54.3691 76.2261 52.4661 79.8563 52.2377C85.3017 51.8952 89.4998 49.9669 91.2142 56.3723C92.9286 62.7778 108.795 63.1414 112.213 67.211C115.631 71.2806 113.342 77.2303 114.493 78.0068C118.698 80.8436 125.343 81.5843 124.276 89.7085C123.653 94.4519 116.768 99.6207 103.311 93.0302L85.0945 62.6191L76.5839 57.9467Z" fill="#0A0F43"/>
<path fill-rule="evenodd" clip-rule="evenodd" d="M91.8383 71.9327L89.5513 61.9918C89.725 60.7549 89.9218 59.3527 90.1419 57.7851C90.472 55.4337 88.2846 49.593 81.5429 51.9379C77.5681 53.3204 75.8289 56.4425 76.7351 60.6394C76.8536 61.1881 78.5343 66.8385 84.2713 64.1986L84.5493 75.4886L91.8383 71.9327Z" fill="#FFA09B"/>
<path d="M78.1516 60.2483L78.2487 60.0447C78.6485 60.2358 79.0327 60.3233 79.4021 60.3087C79.7652 60.2943 80.0603 60.1816 80.2921 59.9707L80.4436 60.1377C80.1711 60.3856 79.8253 60.5177 79.4111 60.5341C79.0032 60.5503 78.5831 60.4546 78.1516 60.2483Z" fill="#0A0F43"/>
<path fill-rule="evenodd" clip-rule="evenodd" d="M77.9615 54.0038C81.1229 57.2712 83.9836 58.3906 86.5436 57.3618C86.4942 57.0838 86.4811 56.8929 86.504 56.7893C86.5923 56.3916 86.8096 56.2019 86.8465 56.1812C88.2672 55.3887 89.0364 56.786 88.6783 58.6868L90.3471 65.4871C92.3373 58.5041 91.6315 54.0213 88.2297 52.0386C84.8279 50.0559 81.4052 50.711 77.9615 54.0038Z" fill="#0A0F43"/>
<path fill-rule="evenodd" clip-rule="evenodd" d="M114.382 113.882C108.041 117.285 103.292 119.143 100.132 119.455C87.6185 120.691 78.0737 116.854 75.8677 114.922C76.2757 110.918 77.507 108.553 79.5615 107.827C83.1427 106.561 94.7494 108.579 114.382 113.882Z" fill="#FF6798"/>
<path fill-rule="evenodd" clip-rule="evenodd" d="M82.7918 106.025L80.1697 137.866L89.7131 183.34H97.4878L95.1114 141.4L99.6316 112.004L82.7918 106.025Z" fill="#2188EA"/>
<path fill-rule="evenodd" clip-rule="evenodd" d="M108.035 112.294L105.025 141.526L111.485 183.441L103.65 183.34L90.0031 137.057L91.5651 109.102L108.035 112.294Z" fill="#319AFD"/>
<path fill-rule="evenodd" clip-rule="evenodd" d="M106.401 91.7725C109.099 91.2987 111.73 91.0274 113.147 91.0274C114.154 91.0274 115.055 90.9942 115.643 90.9888C115.696 90.9883 115.746 90.988 115.794 90.988C116.01 90.988 114.589 88.7073 112.752 85.1396C109.687 79.1899 104.65 70.5762 98.1485 69.7008L90.9151 68.4961C87.1917 71.6691 85.6661 69.9492 84.3899 68.5904C80.1621 71.465 78.8348 81.0842 77.7966 97.2825C77.5713 100.797 76.9284 106.716 75.8677 115.04C76.7906 111.914 76.7906 107.562 86.579 109.058C88.3612 109.331 93.4946 109.883 99.3243 111.763C106.536 114.089 113.435 113.983 114.382 113.882C112.257 111.415 110.642 108.855 109.536 106.201C107.718 101.842 105.398 95.0055 102.576 85.6918L106.401 91.7725Z" fill="#F00051"/>
<path fill-rule="evenodd" clip-rule="evenodd" d="M74.4953 73.6885C73.6526 72.5745 73.0156 72.2796 72.4461 72.4499C71.8766 72.6203 72.0517 73.0861 72.7217 74.2518L74.4953 73.6885Z" fill="#FFA09B"/>
<path fill-rule="evenodd" clip-rule="evenodd" d="M66.3463 76.3625C75.445 72.8436 85.7206 76.9 89.9785 85.6916L117.041 141.569C117.094 141.679 117.143 141.792 117.187 141.906C118.041 144.133 116.931 146.632 114.707 147.486L66.1091 166.164C66.1091 166.164 66.109 166.165 66.1089 166.165C63.8852 167.019 61.3903 165.906 60.5367 163.678L33.676 93.6184C32.8233 91.3944 33.9289 88.8997 36.1472 88.0417L66.3463 76.3625Z" fill="#FFBD00"/>
<path fill-rule="evenodd" clip-rule="evenodd" d="M83.445 76.8125C84.0185 77.1661 84.6107 77.4886 85.2189 77.7784L96.4623 83.137L118.747 141.261C119.6 143.488 118.49 145.986 116.267 146.841L67.3113 165.656C67.3113 165.657 67.3112 165.657 67.3111 165.657C65.0875 166.511 62.5926 165.398 61.739 163.171L34.8815 93.119C34.8772 93.1192 34.8767 93.1179 34.8762 93.1166C34.0243 90.8885 35.137 88.3913 37.363 87.5428L76.5174 72.5412L83.445 76.8125Z" fill="#FFF4D6"/>
<path fill-rule="evenodd" clip-rule="evenodd" d="M96.3011 83.077L86.114 86.3058C83.4635 87.1458 80.6317 85.6879 79.7706 83.04L76.3433 72.5015L96.3011 83.077Z" fill="#FFBD00"/>
<path fill-rule="evenodd" clip-rule="evenodd" d="M46.3389 104.131L89.9268 87.3804C90.8936 87.0089 91.9783 87.4928 92.3496 88.4612L93.6271 91.7927C93.9985 92.7611 93.5157 93.8474 92.5489 94.2189L48.9611 110.969C47.9943 111.34 46.9095 110.857 46.5382 109.888L45.2607 106.557C44.8894 105.588 45.3721 104.502 46.3389 104.131Z" fill="#FFBC00"/>
<path fill-rule="evenodd" clip-rule="evenodd" d="M62.7109 110.741L95.2258 98.2458C95.6249 98.0925 96.0989 98.3607 96.2845 98.8449L96.4862 99.3709C96.6719 99.8551 96.4989 100.372 96.0999 100.525L63.5849 113.02C63.1859 113.174 62.7119 112.905 62.5262 112.421L62.3245 111.895C62.1388 111.411 62.3118 110.894 62.7109 110.741Z" fill="#FFBC00"/>
<path fill-rule="evenodd" clip-rule="evenodd" d="M66.8404 122.099L99.3553 109.604C99.7543 109.45 100.228 109.719 100.414 110.203L100.616 110.729C100.801 111.213 100.628 111.73 100.229 111.883L67.7144 124.378C67.3154 124.531 66.8414 124.263 66.6557 123.779L66.454 123.253C66.2683 122.769 66.4413 122.252 66.8404 122.099Z" fill="#FFBC00"/>
<path fill-rule="evenodd" clip-rule="evenodd" d="M70.9473 133.394L103.462 120.899C103.861 120.746 104.335 121.014 104.521 121.498L104.723 122.024C104.908 122.508 104.735 123.025 104.336 123.179L71.8214 135.674C71.4223 135.827 70.9483 135.559 70.7626 135.074L70.5609 134.548C70.3753 134.064 70.5483 133.547 70.9473 133.394Z" fill="#FFBC00"/>
<path fill-rule="evenodd" clip-rule="evenodd" d="M64.4859 115.623L97.0007 103.128C97.3998 102.974 97.8738 103.243 98.0595 103.727L98.2612 104.253C98.4469 104.737 98.2739 105.254 97.8748 105.407L65.3599 117.902C64.9609 118.055 64.4869 117.787 64.3012 117.303L64.0995 116.777C63.9138 116.293 64.0868 115.776 64.4859 115.623Z" fill="#FFBC00"/>
<path fill-rule="evenodd" clip-rule="evenodd" d="M68.6154 126.98L101.13 114.486C101.529 114.332 102.003 114.6 102.189 115.085L102.391 115.611C102.576 116.095 102.403 116.612 102.004 116.765L69.4895 129.26C69.0904 129.413 68.6164 129.145 68.4307 128.661L68.229 128.135C68.0434 127.651 68.2163 127.134 68.6154 126.98Z" fill="#FFBC00"/>
<path fill-rule="evenodd" clip-rule="evenodd" d="M72.7223 138.276L105.237 125.781C105.636 125.628 106.11 125.896 106.296 126.38L106.498 126.906C106.683 127.39 106.51 127.907 106.111 128.06L73.5964 140.555C73.1973 140.709 72.7233 140.441 72.5377 139.956L72.336 139.43C72.1503 138.946 72.3233 138.429 72.7223 138.276Z" fill="#FFBC00"/>
<path d="M97.0135 145.291C97.906 144.903 98.4663 143.179 98.6105 140.127C95.9341 142.771 95.2001 144.481 96.1993 145.28C96.5004 145.431 96.706 145.424 97.0135 145.291ZM101.036 140.377C100.762 139.297 100.233 139.048 99.2469 139.569C99.1301 143.254 98.4893 145.367 97.2226 145.92C96.7425 146.129 96.3401 146.136 95.8475 145.881L95.8235 145.869L95.8021 145.852C94.2603 144.671 95.2571 142.491 98.5468 139.342C97.1191 137.286 95.3021 136.833 92.9946 137.954C90.6091 139.113 89.3877 142.724 89.3988 148.82L88.7856 148.822C88.7742 142.513 90.0653 138.696 92.7277 137.402C95.3057 136.15 97.4454 136.687 99.0457 138.984C100.339 138.347 101.264 138.781 101.63 140.226C101.787 140.844 101.961 141.242 102.127 141.409C102.221 141.502 102.276 141.499 102.414 141.375L104.119 139.693C104.608 139.218 105.106 139.428 105.374 140.121C105.464 140.354 105.813 140.293 106.614 139.692C107.225 139.231 107.945 138.434 108.768 137.302L109.263 137.662C108.408 138.839 107.65 139.678 106.982 140.182C106.475 140.562 106.059 140.784 105.715 140.843C105.289 140.917 104.954 140.737 104.802 140.343C104.761 140.239 104.721 140.159 104.682 140.106C104.665 140.082 104.651 140.067 104.642 140.059C104.619 140.07 104.587 140.093 104.548 140.131L102.835 141.821C102.457 142.161 102.033 142.181 101.694 141.844C101.429 141.579 101.217 141.095 101.036 140.377Z" fill="#141B5E"/>
<path fill-rule="evenodd" clip-rule="evenodd" d="M49.9411 115.267L56.8713 112.742C57.9345 112.355 59.1101 112.904 59.497 113.968L60.8283 117.63C61.2153 118.694 60.6671 119.871 59.6039 120.258L53.0587 122.643C51.9955 123.03 50.8199 122.482 50.4329 121.417L48.9615 117.37C48.652 116.519 49.0905 115.577 49.9411 115.267Z" fill="#FFBD00"/>
<path fill-rule="evenodd" clip-rule="evenodd" d="M52.7159 117.164L54.9675 118.388L57.7556 110.756C57.9121 110.328 58.3784 110.103 58.8098 110.248C59.2245 110.387 59.45 110.838 59.3134 111.255C59.3109 111.263 59.3084 111.27 59.3057 111.278L56.5018 119.048C56.2185 119.834 55.3556 120.236 54.5744 119.947C54.522 119.928 54.4707 119.905 54.4208 119.88L51.9597 118.644C51.5493 118.438 51.381 117.937 51.5838 117.524C51.5857 117.521 51.5876 117.517 51.5895 117.513C51.7982 117.105 52.2968 116.946 52.7034 117.158C52.7075 117.16 52.7117 117.162 52.7159 117.164Z" fill="#141B5E"/>
<path fill-rule="evenodd" clip-rule="evenodd" d="M54.1765 126.702L61.1067 124.177C62.1699 123.789 63.3455 124.338 63.7325 125.402L65.0637 129.064C65.4507 130.128 64.9025 131.305 63.8393 131.692L57.2941 134.077C56.2309 134.464 55.0554 133.916 54.6684 132.851L53.197 128.804C52.8874 127.953 53.326 127.011 54.1765 126.702Z" fill="#FFBD00"/>
<path fill-rule="evenodd" clip-rule="evenodd" d="M58.4121 138.136L65.3423 135.611C66.4055 135.223 67.5811 135.772 67.9681 136.836L69.2993 140.498C69.6863 141.562 69.1381 142.739 68.0749 143.126L61.5297 145.511C60.4665 145.898 59.291 145.35 58.904 144.285L57.4326 140.238C57.123 139.387 57.5616 138.446 58.4121 138.136Z" fill="#FFBD00"/>
<path fill-rule="evenodd" clip-rule="evenodd" d="M56.6882 128.284L58.9398 129.508L61.7279 121.876C61.8844 121.447 62.3508 121.222 62.7821 121.368C63.1968 121.507 63.4223 121.958 63.2857 122.375C63.2833 122.382 63.2807 122.39 63.278 122.397L60.4741 130.168C60.1909 130.953 59.3279 131.355 58.5467 131.067C58.4943 131.047 58.443 131.025 58.3931 131L55.932 129.764C55.5216 129.558 55.3533 129.056 55.5561 128.644C55.558 128.64 55.5599 128.637 55.5618 128.633C55.7705 128.225 56.2691 128.065 56.6756 128.277C56.6798 128.28 56.684 128.282 56.6882 128.284Z" fill="#141B5E"/>
<path fill-rule="evenodd" clip-rule="evenodd" d="M60.9237 139.718L63.1752 140.942L65.9634 133.31C66.1199 132.881 66.5862 132.657 67.0176 132.802C67.4323 132.941 67.6578 133.392 67.5212 133.809C67.5187 133.816 67.5162 133.824 67.5135 133.831L64.7096 141.602C64.4263 142.387 63.5634 142.79 62.7822 142.501C62.7298 142.481 62.6785 142.459 62.6285 142.434L60.1675 141.198C59.7571 140.992 59.5888 140.49 59.7916 140.078C59.7935 140.074 59.7954 140.071 59.7973 140.067C60.0059 139.659 60.5046 139.499 60.9111 139.711C60.9153 139.714 60.9195 139.716 60.9237 139.718Z" fill="#141B5E"/>
<path fill-rule="evenodd" clip-rule="evenodd" d="M75.869 76.7824C74.5304 75.3823 73.3396 74.3127 72.2967 73.5736C71.2538 72.8344 69.4722 73.7663 66.8737 76.1884C67.7477 77.4371 68.5865 78.2473 69.4683 78.7996C70.863 79.6732 72.0638 79.8639 72.4151 79.9799C72.6148 80.0458 73.1625 79.9484 73.3445 79.6701C73.503 79.4279 73.1387 79.3312 73.3285 79.3772C74.5546 79.6743 75.0881 79.5005 74.9292 78.8559C75.2222 78.8486 75.8644 78.8776 76.0522 78.6307C76.1009 78.5667 76.1234 78.4638 76.1179 78.343C76.1148 78.2725 76.0597 78.1521 76.0178 78.0615C75.9953 78.0128 75.8234 77.8414 75.8599 77.8293C76.3399 77.6693 76.3429 77.3204 75.869 76.7824Z" fill="#FDA09D"/>
<path fill-rule="evenodd" clip-rule="evenodd" d="M98.6073 97.8965C98.2327 102.538 98.8142 105.521 100.352 106.846L102.031 102.735C101.26 101.316 100.642 100.278 100.177 99.6215C99.7129 98.965 99.1895 98.39 98.6073 97.8965Z" fill="#FF6999"/>
<path fill-rule="evenodd" clip-rule="evenodd" d="M104.334 98.1484H97.3295C94.5998 96.6472 90.6 94.6395 89.2207 94.5601C87.7688 94.6159 86.83 94.7408 86.4042 94.935C86.0677 95.0884 86.2474 95.9488 87.1623 96.2026C87.3461 96.2535 87.8789 96.2689 88.2654 96.4284C88.523 96.5347 88.6717 96.6907 88.7116 96.8965C88.6066 97.1249 88.3569 97.1249 88.1923 97.1298C86.3907 97.1833 85.2183 97.0142 84.6553 97.0592C83.6862 97.1368 82.7817 97.9276 84.2396 98.0991C85.1177 98.2024 85.7799 98.4743 86.7854 98.5893C85.7576 98.5791 84.8945 98.5151 84.1961 98.3974H83.2838C83.0348 98.3974 82.8329 98.6001 82.8329 98.8501C82.8329 99.0374 82.9478 99.2053 83.122 99.2726C84.0119 99.6161 85.106 99.7741 86.4042 99.7463L84.2396 99.9119C83.5997 99.8232 83.2134 99.7976 83.0807 99.8352C82.4302 100.019 83.154 100.835 84.3788 101.04C85.1267 101.127 85.8018 101.171 86.4042 101.171L84.8611 101.286C84.7369 101.295 84.6437 101.404 84.6529 101.529C84.6581 101.598 84.6953 101.662 84.7535 101.701C85.008 101.869 85.3701 102.02 85.8397 102.151C86.0469 102.21 86.5473 102.338 86.7854 102.392C87.7209 102.603 88.7604 102.746 90.3247 102.84H93.1245L104.334 102.85C104.915 102.857 104.915 101.29 104.334 98.1484Z" fill="#FFA09B"/>
<path fill-rule="evenodd" clip-rule="evenodd" d="M98.6072 97.8969C99.8751 99.4204 100.616 100.731 100.83 101.829C101.044 102.927 100.885 104.599 100.352 106.846L118.54 104.297C119.895 104.106 120.841 102.852 120.651 101.495C120.62 101.275 120.56 101.06 120.472 100.856C119.56 98.739 118.916 97.2598 118.541 96.4189C118.01 95.2266 117.072 93.3207 115.728 90.7012L105.868 90.928L109.514 96.7724L98.6072 97.8969Z" fill="#F00051"/>
<path d="M109.311 105.819L100.344 106.875L100.42 106.51L109.26 105.412L109.311 105.819Z" fill="white"/>
<path fill-rule="evenodd" clip-rule="evenodd" d="M103.65 183.34L94.6261 186.964L93.9248 188.644H113.363L111.348 183.34H103.65Z" fill="#151E5C" stroke="#151E5C"/>
<path fill-rule="evenodd" clip-rule="evenodd" d="M89.7194 183.34L80.6954 186.964L79.9941 188.644H99.432L97.4176 183.34H89.7194Z" fill="#151E5C" stroke="#151E5C"/>
<path d="M111.95 96.7956L98.8587 98.177L98.5812 97.8965L111.907 96.3877L111.95 96.7956Z" fill="white"/>
<path d="M42.1743 76.7839L48.4146 93.0577C49.2864 95.3311 48.1521 97.8815 45.8811 98.7542C43.6101 99.6268 41.0624 98.4913 40.1907 96.2179L33.9504 79.9441C33.0786 77.6707 34.2129 75.1203 36.4839 74.2477C38.7549 73.375 41.3026 74.5105 42.1743 76.7839ZM41.218 77.1513C40.549 75.4067 38.5938 74.5352 36.851 75.2049C35.1081 75.8747 34.2376 77.8319 34.9066 79.5766L41.147 95.8505C41.816 97.5952 43.7712 98.4666 45.514 97.7969C47.2569 97.1271 48.1274 95.1699 47.4584 93.4252L41.218 77.1513Z" fill="#FFBE00"/>
<path fill-rule="evenodd" clip-rule="evenodd" d="M84.2712 64.1988C85.7759 63.377 86.6204 62.5458 86.8048 61.7051C86.3403 63.8186 85.5231 65.7412 84.3534 67.4729L84.2712 64.1988Z" fill="#E07871"/>
</svg>
